<svg id="Layer_1" data-name="Layer 1" xmlns="http://www.w3.org/2000/svg" viewBox="0 0 168.54 36.63"><defs><style>.cls-1{fill:#de5645;}.cls-2{fill:#1d1d1b;}</style></defs><path class="cls-1" d="M53.51,22.67l7.5-11h9.45l-12,17.56L71.33,47.63h-9.5l-8.32-12-4.64-6.78Zm-5.19,6.21" transform="translate(-2.02 -11.42)"/><path class="cls-2" d="M58.73,28.88l-4.64,6.78-8.32,12h-9.5L49.16,29.24l-12-17.56h9.45l7.5,11Zm.55,0" transform="translate(-2.02 -11.42)"/><path class="cls-2" d="M40.64,29.65C40.64,40,32.32,48,21.33,48S2,40.08,2,29.65s8.32-18.23,19.31-18.23S40.64,19.23,40.64,29.65Zm-30.3,0A11.18,11.18,0,0,0,21.44,40.9,11,11,0,0,0,32.32,29.65,10.91,10.91,0,0,0,21.44,18.51,11.06,11.06,0,0,0,10.34,29.65Z" transform="translate(-2.02 -11.42)"/><path class="cls-2" d="M74.31,31v-19h8.44V31.84c0,6.92,2.3,9.31,6.48,9.31s6.62-2.39,6.62-9.31V12.07H104V31c0,11.86-5.1,17-14.76,17S74.31,42.89,74.31,31Z" transform="translate(-2.02 -11.42)"/><path class="cls-2" d="M112,12.07h13.45c7.92,0,14.41,2.6,14.41,11,0,8.12-6.49,11.62-14.41,11.62h-5V47.4H112ZM124.8,28.34c4.44,0,6.83-1.79,6.83-5.27s-2.39-4.66-6.83-4.66h-4.32v9.93ZM124,32.58l5.84-5.11L141.7,47.4h-9.44Z" transform="translate(-2.02 -11.42)"/><path class="cls-2" d="M146.59,12.07H170v6.7H155v7.09h12.73v6.7H155V40.7h15.53v6.7h-24Z" transform="translate(-2.02 -11.42)"/></svg>