<?xml version="1.0" encoding="utf-8"?>
<!-- Generator: Adobe Illustrator 24.3.0, SVG Export Plug-In . SVG Version: 6.00 Build 0)  -->
<svg version="1.1" id="Layer_1" xmlns="http://www.w3.org/2000/svg" xmlns:xlink="http://www.w3.org/1999/xlink" x="0px" y="0px"
	 viewBox="0 0 88.3 28" style="enable-background:new 0 0 88.3 28;" xml:space="preserve">
<style type="text/css">
	.st0{fill:#DE5645;}
	.st1{fill:#1D1D1B;}
</style>
<g>
	<path class="st0" d="M28.3,12l3.6-5.3h4.5l-5.8,8.4l6.2,8.8h-4.6l-4-5.8l-2.2-3.2L28.3,12z"/>
	<path class="st1" d="M30.8,14.9l-2.2,3.2l-4,5.8H20l6.2-8.8l-5.8-8.4H25l3.6,5.3L30.8,14.9z"/>
	<path class="st1" d="M22.1,15.3c0,5-4,8.8-9.3,8.8s-9.3-3.8-9.3-8.8s4-8.7,9.3-8.7S22.1,10.3,22.1,15.3z M7.6,15.3
		c0,3,2.4,5.4,5.3,5.4c2.9,0,5.2-2.4,5.2-5.3c0,0,0,0,0-0.1c0.1-2.9-2.2-5.3-5.1-5.3c0,0-0.1,0-0.1,0C10,10,7.6,12.3,7.6,15.3
		C7.6,15.3,7.6,15.3,7.6,15.3z"/>
	<path class="st1" d="M38.3,16V6.8h4v9.5c0,3.3,1.1,4.5,3.1,4.5s3.2-1.1,3.2-4.5V6.9h3.9V16c0,5.7-2.4,8.1-7.1,8.1
		S38.3,21.6,38.3,16z"/>
	<path class="st1" d="M56.3,6.9h6.4c3.8,0,6.9,1.2,6.9,5.3c0,3.9-3.1,5.6-6.9,5.6h-2.4v6.1h-4V6.9z M62.4,14.7
		c2.1,0,3.3-0.9,3.3-2.5s-1.1-2.2-3.3-2.2h-2.1v4.8H62.4z M62.1,16.7l2.8-2.4l5.7,9.6H66L62.1,16.7z"/>
	<path class="st1" d="M72.9,6.9h11.2v3.2h-7.2v3.4H83v3.2h-6.1v3.9h7.4v3.2H72.9L72.9,6.9z"/>
</g>
</svg>
